<?xml version="1.0" standalone="no"?>
<!DOCTYPE svg PUBLIC "-//W3C//DTD SVG 20010904//EN"
 "http://www.w3.org/TR/2001/REC-SVG-20010904/DTD/svg10.dtd">
<svg version="1.0" xmlns="http://www.w3.org/2000/svg"
 width="1236.000000pt" height="1280.000000pt" viewBox="0 0 1236.000000 1280.000000"
 preserveAspectRatio="xMidYMid meet">
<metadata>
Created by potrace 1.15, written by Peter Selinger 2001-2017
</metadata>
<g transform="translate(0.000000,1280.000000) scale(0.100000,-0.100000)"
fill="#000000" stroke="none">
<path d="M190 12540 l0 -190 1113 0 1114 0 621 -702 621 -703 -1105 -3 c-607
-1 -1104 -4 -1104 -7 0 -3 1084 -1314 2410 -2913 l2409 -2907 1 -1892 0 -1892
-1352 -3 -1353 -3 -75 -23 c-116 -36 -187 -79 -271 -162 -89 -88 -147 -194
-174 -316 -25 -111 -17 -283 18 -385 79 -232 243 -375 482 -423 73 -15 390
-16 3460 -14 l3380 3 70 23 c114 39 185 82 261 158 124 125 186 286 186 479
-2 313 -183 556 -477 642 -56 16 -160 18 -1432 21 l-1373 3 0 1877 0 1877
2365 2920 c1301 1606 2365 2923 2365 2927 0 5 -1842 8 -4092 8 l-4093 0 -790
895 -790 894 -1197 1 -1198 0 0 -190z"/>
</g>
</svg>
